<?xml version="1.0" encoding="utf-8"?>
<!-- Generator: Adobe Illustrator 19.2.1, SVG Export Plug-In . SVG Version: 6.00 Build 0)  -->
<svg version="1.1" id="Layer_1" xmlns="http://www.w3.org/2000/svg" xmlns:xlink="http://www.w3.org/1999/xlink" x="0px" y="0px"
	 viewBox="0 0 428 166.7" style="enable-background:new 0 0 428 166.7;" xml:space="preserve">
<style type="text/css">
	.st0{fill:#FE980B;}
	.st1{fill:none;}
</style>
<title>qipr_logo_outlines</title>
<g>
	<path class="st0" d="M161.1,20.3h8.2v115.4h-8.2V20.3z"/>
	<path class="st0" d="M204.6,20.3h48.1c23.1,0,35.8,12.7,35.8,31.2s-12.7,31.3-35.8,31.3h-39.9v52.9h-8.2L204.6,20.3L204.6,20.3z
		 M251.9,75.2c18.1,0,28.4-8.6,28.4-23.7c0-15-10.2-23.6-28.4-23.6h-39.1v47.3H251.9z"/>
	<path class="st0" d="M314.2,20.3h51.3c22.6,0,35.3,12.4,35.3,30.5c0,16.3-10.1,28.2-28.5,30.3l37.8,54.6h-9.6l-37.6-53.9h-40.4
		v53.9h-8.2V20.3H314.2z M364.8,74.2c17.5,0,27.7-8.2,27.7-23.2c0-14.7-10.2-23.1-27.7-23.1h-42.4v46.3H364.8L364.8,74.2z"/>
</g>
<image style="overflow:visible;" width="3471" height="4694" xlink:href="../../../../../../../Downloads/Orange Q Graphic element_Final_Q_solid.png"  transform="matrix(3.898828e-02 0 0 3.898828e-02 8.2921 4.9226)">
</image>
<rect id="_Slice_" y="-27.3" class="st1" width="429" height="233"/>
</svg>
