<svg id="Layer_1" data-name="Layer 1" xmlns="http://www.w3.org/2000/svg" viewBox="0 0 644 235">
  <defs>
    <style>
      .cls-1 {
        fill: #efaf2e;
      }

      .cls-2 {
        fill: #fff;
      }

      .cls-3 {
        fill: #231f20;
      }

      .cls-4 {
        fill: #47b1e5;
      }

      .cls-5, .cls-7 {
        fill: none;
      }

      .cls-5 {
        stroke: #231f20;
        stroke-miterlimit: 10;
      }

      .cls-6 {
        fill: #37c5f1;
      }
    </style>
  </defs>
  <title>qipr_logo_outlines</title>
  <g>
    <g>
      <polygon class="cls-1" points="163.16 119.86 147.16 180.91 86.28 197.59 41.41 153.2 57.41 92.14 118.28 75.47 163.16 119.86"/>
      <circle class="cls-2" cx="118.49" cy="117.28" r="13.44" transform="translate(-25.46 33.18) rotate(-14.41)"/>
      <circle class="cls-3" cx="120.41" cy="116.79" r="7.48" transform="translate(-25.28 33.64) rotate(-14.41)"/>
      <circle class="cls-2" cx="140.85" cy="111.54" r="10.76" transform="translate(-23.33 38.56) rotate(-14.41)"/>
      <circle class="cls-3" cx="142.38" cy="111.14" r="5.99" transform="translate(-23.18 38.93) rotate(-14.41)"/>
      <polygon class="cls-4" points="118.28 75.47 79.33 67.11 77.63 74.07 65.34 68.88 64.06 74.12 56.97 71.12 47.25 130.9 66.45 93.36 118.28 75.47"/>
      <polygon class="cls-1" points="12.46 186.34 10.25 131.23 43.6 152.63 12.46 186.34"/>
      <polygon class="cls-4" points="92.87 174.18 79.67 167.13 101.34 151.13 92.87 174.18"/>
      <path class="cls-5" d="M155.9,147.55c-5,6-22.81,8.91-34.15-3.26"/>
    </g>
    <circle class="cls-4" cx="209.83" cy="76.78" r="10.99"/>
    <circle class="cls-4" cx="187.84" cy="109.66" r="10.99"/>
    <circle class="cls-4" cx="179.23" cy="65.79" r="8.61"/>
    <circle class="cls-4" cx="179.23" cy="37.52" r="8.61"/>
    <circle class="cls-4" cx="160.21" cy="17.87" r="4.3"/>
    <circle class="cls-4" cx="164.48" cy="53" r="4.3"/>
  </g>
  <g>
    <path class="cls-6" d="M233.6,134.47c0-34.13,24.73-59.68,57.54-59.68,32.48,0,57.37,25.55,57.37,59.68,0,28-16.65,50.12-40.39,57.21,7.58,8.24,14.84,12,23.08,12,5.44,0,10.06-1.32,13.68-4v8.41a29,29,0,0,1-14.18,3.3c-12.36,0-22.09-7.58-32-18a39.32,39.32,0,0,1-7.58.66C258.33,194.14,233.6,168.76,233.6,134.47Zm106.5,0c0-29.84-21.6-51.76-49-51.76S242,104.63,242,134.47s21.76,51.93,49.13,51.93S340.1,164.3,340.1,134.47Z"/>
    <path class="cls-6" d="M379.17,76.77h8.24v115.4h-8.24V76.77Z"/>
    <path class="cls-6" d="M422.7,76.77h48.14c23.08,0,35.77,12.69,35.77,31.16s-12.69,31.32-35.77,31.32h-39.9v52.92H422.7V76.77ZM470,131.66c18.13,0,28.35-8.57,28.35-23.74,0-15-10.22-23.57-28.35-23.57H430.94v47.31H470Z"/>
    <path class="cls-6" d="M532.33,76.77H583.6c22.59,0,35.28,12.36,35.28,30.5,0,16.32-10.06,28.19-28.52,30.33l37.75,54.57h-9.56L581,138.26H540.57v53.91h-8.24V76.77Zm50.61,53.91c17.47,0,27.7-8.24,27.7-23.25,0-14.67-10.22-23.08-27.7-23.08H540.57v46.32h42.37Z"/>
  </g>
  <rect id="_Slice_" data-name="&lt;Slice&gt;" class="cls-7" width="645" height="233"/>
</svg>
